<svg width="766" height="443" viewBox="0 0 766 443" fill="none" xmlns="http://www.w3.org/2000/svg">
<g clip-path="url(#clip0_202_1537)">
<path d="M383.685 121.728C345.482 85.8867 300.675 76.6906 288.884 74.8042C296.902 53.3468 309.164 21.3964 312.23 16.6805C313.174 16.5626 315.178 16.3268 318.244 16.3268C326.969 16.3268 345.482 18.0953 372.483 30.2388C411.395 47.6877 421.771 67.3767 423.775 72.2105L383.685 121.728Z" fill="white"/>
<path d="M318.126 18.6848C326.616 18.6848 344.892 20.4533 371.304 32.361C406.442 48.1593 417.762 65.844 420.828 71.8568L383.331 118.309C360.692 97.7944 336.402 86.3583 319.541 80.4634C307.632 76.2191 297.963 73.979 292.067 72.9179C300.911 49.2204 310.462 24.9334 313.645 18.8027C314.706 18.8027 316.239 18.6848 318.126 18.6848ZM318.126 13.9689C313.409 13.9689 310.933 14.4405 310.933 14.4405C308.221 15.3836 285.582 76.6907 285.582 76.6907C285.582 76.6907 339.35 82.114 383.803 125.147L426.252 72.5642C426.252 72.5642 419.177 48.6309 373.191 27.9987C346.425 15.9731 327.677 13.9689 318.126 13.9689Z" fill="#A0C6F4"/>
<path d="M293.482 81.5245C293.482 81.5245 346.307 86.83 378.851 116.776" stroke="#2A1E17" stroke-miterlimit="10" stroke-linecap="round" stroke-linejoin="round"/>
<path d="M339.114 78.9308L358.806 40.6139L379.087 80.5813L339.114 78.9308Z" fill="#A0C6F4"/>
<path d="M343.005 78.3413L362.697 40.0244L382.86 79.9919L343.005 78.3413Z" stroke="#2A1E17" stroke-miterlimit="10" stroke-linecap="round" stroke-linejoin="round"/>
<path d="M324.493 11.611C324.493 11.611 383.685 16.9164 420.592 60.6566" stroke="#2A1E17" stroke-miterlimit="10" stroke-linecap="round" stroke-linejoin="round"/>
<path d="M354.679 181.384C351.377 179.026 349.255 177.376 349.255 177.376C350.198 176.197 364.465 160.988 372.719 148.726C372.719 148.844 356.094 182.445 354.679 181.384Z" fill="#2A1E17"/>
<path d="M152.695 70.7958C154.228 73.3895 154.935 72.3285 159.534 71.9748C164.132 71.6211 170.618 74.9222 172.976 80.5813C175.334 86.2404 174.509 87.0657 173.33 87.7731C172.15 88.4805 163.307 89.5416 162.953 91.31" stroke="#2A1E17" stroke-miterlimit="10" stroke-linecap="round" stroke-linejoin="round"/>
<path d="M271.551 357.76L267.424 350.804L252.92 375.091L256.694 378.038L271.551 357.76Z" fill="#F9865F"/>
<path d="M174.744 297.514C174.744 297.514 167.198 285.252 170.381 279.24L194.436 281.833L174.744 297.514Z" fill="#F9865F"/>
<path d="M174.744 297.514L176.159 300.815L171.679 318.146C171.089 320.386 171.797 322.626 173.565 324.159L195.615 291.619C197.737 288.554 197.266 284.309 194.554 281.833L189.601 277.235L174.744 297.514Z" fill="black"/>
<path d="M162.953 91.4279C169.91 91.31 178.636 90.8384 176.867 85.533C175.098 80.2276 168.613 67.1409 153.638 71.1495C153.638 71.1495 148.332 75.5117 154.935 83.4109C161.538 91.1921 162.953 91.4279 162.953 91.4279Z" fill="#2A1E33"/>
<path d="M197.855 282.069C197.855 282.069 186.064 247.289 196.087 231.963C204.34 219.347 231.224 239.862 234.88 242.573L254.099 207.793C254.099 207.793 249.619 201.545 238.771 195.532C227.923 189.519 182.88 171.245 161.656 204.61C153.874 216.99 153.756 269.926 168.731 290.204L197.855 282.069Z" fill="#7595EC"/>
<path d="M197.855 282.069C197.855 282.069 186.064 247.289 196.086 231.963C204.34 219.347 231.224 239.862 234.88 242.573" stroke="#2A1E17" stroke-miterlimit="10" stroke-linecap="round" stroke-linejoin="round"/>
<path d="M254.099 208.029C245.374 217.225 219.433 262.027 213.537 283.484C205.755 312.133 208.703 335.949 251.505 382.518L272.258 352.336C272.258 352.336 257.637 330.172 260.349 309.304C264.24 279.122 285.7 249.883 296.666 231.373L254.099 208.029Z" fill="#7595EC"/>
<path d="M257.401 211.92L291.831 238.918L302.208 223.238L257.401 211.92Z" fill="#2A1E17"/>
<path d="M455.376 183.388C460.8 184.567 464.809 186.572 467.639 189.519C470.469 192.467 469.172 193.999 468.11 194.942C467.049 195.886 463.158 194.825 459.621 191.759C456.083 188.694 455.376 183.388 455.376 183.388Z" fill="#FF8A66"/>
<path d="M349.373 177.376C350.316 176.197 364.583 160.988 372.837 148.726C372.837 148.726 397.835 176.668 400.429 177.611C401.49 177.965 407.503 177.847 415.168 177.729C428.02 177.611 445.117 177.494 448.891 179.38C454.904 182.327 458.559 183.86 459.974 188.104C461.507 192.349 462.097 195.06 458.442 195.296C454.197 195.65 451.485 190.227 451.485 190.227C451.485 190.227 448.065 192.349 439.222 195.65C439.222 195.65 407.268 208.029 385.925 202.016C380.03 200.484 349.373 177.376 349.373 177.376Z" fill="#F9865F"/>
<path d="M155.524 65.8441C152.813 66.9052 151.162 68.0841 152.695 70.7958C154.227 73.3896 154.935 72.3285 159.534 71.9748C164.132 71.6211 170.617 74.9222 172.976 80.5813C175.334 86.2404 174.508 87.0657 173.329 87.7731C172.15 88.4805 163.307 89.5416 162.953 91.3101C162.599 93.0785 166.49 98.2661 174.626 97.9124L176.513 97.5587C176.513 97.5587 193.61 114.182 196.086 116.658C198.563 119.134 216.721 131.395 226.744 133.871C234.29 135.758 249.737 133.282 258.934 131.513C263.414 130.688 266.48 129.863 266.48 129.863C266.48 129.863 259.523 117.366 258.108 98.1482C258.108 98.1482 241.483 100.86 230.517 103.218C230.517 103.218 204.812 88.8342 192.195 82.4677C192.195 82.4677 181.229 69.0273 176.159 67.2589C171.089 65.8441 159.298 64.4293 155.524 65.8441Z" fill="#F9865F"/>
<path d="M258.934 131.631C263.414 130.806 266.48 129.981 266.48 129.981C266.48 129.981 258.108 119.37 256.693 100.152C256.693 100.152 252.92 104.279 254.099 115.125C255.632 128.919 258.934 131.631 258.934 131.631Z" fill="#2A1E17"/>
<path d="M256.34 98.1481C256.34 98.1481 256.576 121.61 262.825 131.395L265.065 130.452C265.065 130.452 235.351 165.114 225.8 187.869C224.268 191.523 287.351 231.962 296.666 231.373C296.666 231.373 327.441 184.45 337.935 170.538L349.255 179.262C349.255 179.262 371.422 156.743 372.601 148.844C372.601 148.844 351.141 122.789 333.69 115.125C316.121 107.462 300.439 94.3754 281.691 94.7291C265.419 95.0828 256.34 98.1481 256.34 98.1481Z" fill="#FFF7C9"/>
<path d="M349.373 179.262L338.053 170.42L339.822 165.586L349.373 179.262Z" fill="#2A1E17"/>
<path d="M366.588 86.3583C364.583 92.489 358.924 110.292 352.556 112.532C346.189 114.772 339.586 111.942 339.586 111.942L332.747 115.361C332.04 117.601 326.616 119.606 319.659 119.841C314.589 120.077 311.405 113.475 312.938 108.641C313.645 106.401 316.239 95.6723 316.239 95.6723C316.239 95.6723 321.781 75.3938 326.851 71.2674C331.922 67.1409 336.638 62.8966 350.198 68.4378C370.715 76.9265 366.588 86.3583 366.588 86.3583Z" fill="#F9865F"/>
<path d="M325.554 87.1836C324.611 90.9563 320.72 98.5018 318.126 97.2049C315.532 95.7902 314.588 92.3711 316.475 85.6509C318.362 78.9307 319.776 63.8398 324.965 61.1281C330.153 58.4165 332.393 61.5997 332.393 61.5997C332.393 61.5997 330.153 50.5173 336.756 49.1025C336.756 49.1025 338.996 48.0414 338.171 55.5869C338.171 55.5869 340.765 48.6309 349.019 49.5741C357.273 50.5173 360.22 62.0713 360.22 62.0713C360.22 62.0713 360.81 58.8881 364.583 58.8881C368.356 58.8881 374.134 64.4293 372.719 70.6779C372.719 70.6779 382.388 67.6125 387.576 75.3938C392.764 83.0572 392.057 91.5458 379.676 94.9649C366.706 98.5018 366.824 83.293 364.819 81.4066C362.815 79.4023 360.692 77.1623 353.499 79.8739C346.189 82.5856 338.642 74.5685 338.642 74.5685C338.642 74.5685 337.463 84.2362 336.166 85.1793C334.987 86.1225 332.511 87.3015 333.101 82.7035C333.69 78.2234 334.516 78.577 334.044 77.3981C333.572 76.2191 331.568 72.3284 327.205 75.7475C322.606 79.5202 325.554 87.1836 325.554 87.1836Z" fill="#2A1E33"/>
<path d="M327.677 88.9521C324.847 86.4763 322.842 82.2319 325.318 77.9876C327.913 73.7433 332.04 73.1538 333.337 74.8044C334.634 76.4549 335.105 79.1666 333.926 82.3498" stroke="#2A1E33" stroke-miterlimit="10" stroke-linecap="round" stroke-linejoin="round"/>
<path d="M256.693 378.038L258.108 381.339L253.628 398.67C253.038 400.91 253.746 403.15 255.514 404.683L277.564 372.143C279.686 369.078 279.215 364.834 276.503 362.358L271.55 357.76L256.693 378.038Z" fill="black"/>
<path d="M332.393 61.7176C332.393 61.7176 330.742 56.1764 325.672 54.7616" stroke="#2A1E33" stroke-miterlimit="10" stroke-linecap="round" stroke-linejoin="round"/>
<path d="M225.211 186.218L286.172 100.978" stroke="#2A1E17" stroke-miterlimit="10" stroke-linecap="round" stroke-linejoin="round"/>
<path d="M311.405 106.873C309.164 109.702 308.221 122.081 318.362 122.789C328.502 123.614 334.987 119.134 334.987 119.134" stroke="#2A1E17" stroke-miterlimit="10" stroke-linecap="round" stroke-linejoin="round"/>
<path d="M176.159 67.6125C176.159 67.6125 183.116 76.8086 184.177 80.1097" stroke="#2A1E17" stroke-miterlimit="10" stroke-linecap="round" stroke-linejoin="round"/>
<path d="M437.571 191.406C437.571 191.406 442.288 195.296 451.485 190.227C454.904 188.458 452.428 184.214 448.183 185.275C443.938 186.336 438.868 184.685 438.868 184.685" stroke="#2A1E17" stroke-miterlimit="10" stroke-linecap="round" stroke-linejoin="round"/>
<path d="M457.027 183.978C457.027 183.978 461.508 189.166 461.39 192.349" stroke="#2A1E17" stroke-miterlimit="10" stroke-linecap="round" stroke-linejoin="round"/>
<path d="M391.114 183.388C391.114 183.388 395.123 177.965 400.311 177.611" stroke="#2A1E17" stroke-miterlimit="10" stroke-linecap="round" stroke-linejoin="round"/>
<path d="M220.612 112.178C220.612 112.178 222.971 104.868 230.517 103.454" stroke="#2A1E17" stroke-miterlimit="10" stroke-linecap="round" stroke-linejoin="round"/>
<path d="M241.129 223.71L232.05 240.923C232.05 240.923 202.336 291.265 212.358 323.805" stroke="#2A1E17" stroke-miterlimit="10" stroke-linecap="round" stroke-linejoin="round"/>
<path d="M267.424 281.48L296.666 231.255C296.666 231.255 335.105 175.607 338.996 167.708L352.556 142.596" stroke="#2A1E17" stroke-miterlimit="10" stroke-linecap="round" stroke-linejoin="round"/>
<path d="M229.22 191.523C229.22 191.523 281.337 229.487 296.784 231.373" stroke="#2A1E17" stroke-miterlimit="10" stroke-linecap="round" stroke-linejoin="round"/>
<path d="M256.34 98.1482C256.34 98.1482 256.34 121.964 262.707 131.749" stroke="#2A1E17" stroke-miterlimit="10" stroke-linecap="round" stroke-linejoin="round"/>
<path d="M371.069 145.072C369.418 154.857 347.722 175.489 347.722 175.489" stroke="#2A1E17" stroke-miterlimit="10" stroke-linecap="round" stroke-linejoin="round"/>
<path d="M208.821 267.332C210.514 267.332 211.887 265.959 211.887 264.267C211.887 262.574 210.514 261.201 208.821 261.201C207.128 261.201 205.755 262.574 205.755 264.267C205.755 265.959 207.128 267.332 208.821 267.332Z" fill="#2A1E17"/>
<path d="M499.004 330.643L497.235 318.853L507.375 325.574L502.069 326.635L499.004 330.643Z" stroke="#2A1E17" stroke-miterlimit="10" stroke-linecap="round" stroke-linejoin="round"/>
<path d="M164.368 128.802C145.266 111.942 113.666 154.032 229.22 287.846C295.958 365.07 348.312 372.026 355.386 345.145C368.121 296.924 322.135 284.781 339.232 303.645C364.112 331.115 434.859 336.892 487.566 311.308C539.565 286.078 507.611 246.818 504.428 244.46" stroke="#2A1E17" stroke-miterlimit="10" stroke-linecap="round" stroke-linejoin="round"/>
<path d="M488.509 314.02C490.203 314.02 491.575 312.647 491.575 310.954C491.575 309.261 490.203 307.889 488.509 307.889C486.816 307.889 485.444 309.261 485.444 310.954C485.444 312.647 486.816 314.02 488.509 314.02Z" fill="#2A1E17"/>
<path d="M443.585 336.184L535.203 284.545" stroke="#2A1E17" stroke-miterlimit="10" stroke-linecap="round" stroke-linejoin="round"/>
<path d="M166.373 134.343C168.066 134.343 169.438 132.97 169.438 131.278C169.438 129.585 168.066 128.212 166.373 128.212C164.679 128.212 163.307 129.585 163.307 131.278C163.307 132.97 164.679 134.343 166.373 134.343Z" fill="#2A1E17"/>
<path d="M245.138 74.0969C248.785 74.0969 251.741 71.141 251.741 67.4946C251.741 63.8483 248.785 60.8923 245.138 60.8923C241.491 60.8923 238.535 63.8483 238.535 67.4946C238.535 71.141 241.491 74.0969 245.138 74.0969Z" fill="#FF6D66"/>
<path d="M124.749 16.7985C123.099 16.7985 121.802 18.0953 121.802 19.7459C121.802 21.3965 123.099 22.6934 124.749 22.6934C126.4 22.6934 127.697 21.3965 127.697 19.7459C127.697 18.0953 126.4 16.7985 124.749 16.7985Z" fill="#A0C6F4"/>
<path d="M515.511 378.981C517.139 378.981 518.459 377.662 518.459 376.034C518.459 374.406 517.139 373.087 515.511 373.087C513.883 373.087 512.563 374.406 512.563 376.034C512.563 377.662 513.883 378.981 515.511 378.981Z" fill="#FAD8B0"/>
<path d="M463.394 244.46L432.029 229.722C429.553 228.543 429.553 224.889 432.147 223.828L490.514 198.126C491.339 197.772 492.282 197.772 493.108 198.126L533.198 215.339L463.394 244.46Z" fill="#2A1E33"/>
<path d="M461.507 196.004C461.625 208.972 463.394 244.342 463.394 244.342L533.08 215.221L531.547 165.94C531.429 162.874 528.364 160.988 525.534 162.167L465.516 189.519C463.04 190.816 461.507 193.292 461.507 196.004Z" fill="#C6CBCB"/>
<path d="M463.394 244.46L533.08 215.339L531.547 166.057C531.547 166.057 531.076 160.634 525.534 162.285" stroke="#2A1E17" stroke-miterlimit="10" stroke-linecap="round" stroke-linejoin="round"/>
<path d="M497.235 208.972L501.833 197.89" stroke="#2A1E17" stroke-miterlimit="10" stroke-linecap="round" stroke-linejoin="round"/>
<path d="M501.833 208.972L506.55 197.89" stroke="#2A1E17" stroke-miterlimit="10" stroke-linecap="round" stroke-linejoin="round"/>
<path d="M137.366 330.407C138.994 330.407 140.314 329.088 140.314 327.46C140.314 325.832 138.994 324.513 137.366 324.513C135.738 324.513 134.418 325.832 134.418 327.46C134.418 329.088 135.738 330.407 137.366 330.407Z" fill="#FF6D66"/>
<path d="M383.213 345.852C385.427 345.852 387.222 344.057 387.222 341.844C387.222 339.63 385.427 337.835 383.213 337.835C380.999 337.835 379.204 339.63 379.204 341.844C379.204 344.057 380.999 345.852 383.213 345.852Z" fill="#FF6D66"/>
<path d="M167.552 370.611C172.268 372.851 186.064 378.628 204.34 378.51C205.284 378.51 206.109 379.335 205.991 380.396L203.397 400.557C203.279 401.264 202.808 401.854 202.1 401.972C196.912 402.915 176.159 405.744 160.595 392.658C160.123 392.304 159.887 391.597 160.123 391.007L165.311 371.79C165.547 370.729 166.608 370.257 167.552 370.611Z" fill="#FFF7DC"/>
<path d="M169.438 376.624C169.438 376.624 178.4 389.239 181.583 391.007C184.767 392.776 202.1 382.518 202.1 382.518" stroke="#2A1E17" stroke-miterlimit="10" stroke-linecap="round" stroke-linejoin="round"/>
<path d="M190.073 389.239L199.506 399.024" stroke="#2A1E17" stroke-miterlimit="10" stroke-linecap="round" stroke-linejoin="round"/>
<path d="M176.985 387.352L165.901 390.418" stroke="#2A1E17" stroke-miterlimit="10" stroke-linecap="round" stroke-linejoin="round"/>
<path d="M456.673 131.749H446.179V142.242H456.673V131.749Z" fill="#FFE1C0"/>
<path d="M447.594 274.052L450.777 279.593L453.961 285.017H447.594H441.344L444.528 279.593L447.594 274.052Z" fill="#A0C6F4"/>
<path d="M194.082 33.54L194.907 8.89927C194.79 6.5413 195.733 5.83392 197.148 5.59812C203.869 4.06544 224.268 -0.414683 246.317 6.06971C249.147 6.895 249.029 8.42767 249.029 9.84245L248.204 33.3042C248.204 35.0726 246.317 36.2516 244.313 36.0158C237.828 35.0726 229.102 34.7189 220.141 34.8368C210.944 34.9547 202.69 35.5442 196.912 36.7232C194.789 37.0769 193.964 35.4263 194.082 33.54Z" stroke="#2A1E17" stroke-miterlimit="10" stroke-linecap="round" stroke-linejoin="round"/>
<path d="M201.51 29.8851L214.363 14.7942L228.63 28.8241C223.796 27.2914 201.51 29.8851 201.51 29.8851Z" stroke="#2A1E17" stroke-miterlimit="10" stroke-linecap="round" stroke-linejoin="round"/>
<path d="M222.263 21.7502L232.757 13.4973L241.483 19.7459L241.837 29.5315L228.63 28.942" stroke="#2A1E17" stroke-miterlimit="10" stroke-linecap="round" stroke-linejoin="round"/>
<path d="M207.234 13.7349C207.352 12.5688 206.292 11.5067 204.867 11.3626C203.442 11.2185 202.191 12.0469 202.073 13.213C201.955 14.3791 203.015 15.4412 204.44 15.5853C205.865 15.7294 207.116 14.9009 207.234 13.7349Z" stroke="#2A1E17" stroke-miterlimit="10" stroke-linecap="round" stroke-linejoin="round"/>
<path d="M443.349 353.869L451.956 369.785C452.9 371.2 452.546 372.025 451.721 372.733C448.065 376.152 436.746 386.645 420.238 390.653C418.116 391.125 417.644 390.182 417.172 389.356L408.918 374.148C408.329 373.086 409.036 371.554 410.333 370.964C414.814 369.196 420.474 366.13 426.134 362.711C431.911 359.174 436.982 355.755 440.165 352.926C441.462 351.865 442.641 352.572 443.349 353.869Z" stroke="#2A1E17" stroke-miterlimit="10" stroke-linecap="round" stroke-linejoin="round"/>
<path d="M439.929 358.939L437.335 373.322L423.068 369.667C426.723 368.842 439.929 358.939 439.929 358.939Z" stroke="#2A1E17" stroke-miterlimit="10" stroke-linecap="round" stroke-linejoin="round"/>
<path d="M429.671 371.79L426.251 380.986L418.351 380.16L414.46 374.148L423.068 369.667" stroke="#2A1E17" stroke-miterlimit="10" stroke-linecap="round" stroke-linejoin="round"/>
<path d="M444.694 371.904C445.641 371.471 446.124 370.495 445.772 369.726C445.42 368.956 444.367 368.683 443.419 369.116C442.472 369.549 441.989 370.524 442.341 371.294C442.693 372.064 443.746 372.337 444.694 371.904Z" stroke="#2A1E17" stroke-miterlimit="10" stroke-linecap="round" stroke-linejoin="round"/>
<path d="M401.254 81.2887L436.392 108.169C437.217 108.759 438.279 108.641 438.868 107.816L444.174 100.624C444.764 99.9166 444.646 98.8555 443.821 98.266L409.154 70.56C408.329 69.9705 407.268 70.0884 406.678 70.9137L400.9 78.9307C400.311 79.6381 400.429 80.6992 401.254 81.2887Z" fill="white" stroke="#2A1E17" stroke-miterlimit="10" stroke-linecap="round" stroke-linejoin="round"/>
<path d="M403.848 80.1098L412.338 86.0047L417.408 80.1098L408.8 72.918L403.848 80.1098Z" fill="#FF6D66"/>
<path d="M415.521 88.3626L424.129 95.2007L428.61 89.5416L420.12 82.5856L415.521 88.3626Z" fill="#FAD8B0"/>
<path d="M426.959 97.7944L435.449 103.689L439.576 98.5018L431.44 91.7816L426.959 97.7944Z" fill="#A0C6F4"/>
<path d="M471.294 43.6792L479.312 110.999C479.43 112.532 480.845 113.475 482.26 113.357L495.82 111.471C497.235 111.235 498.296 110.056 498.06 108.523L491.575 40.9675C491.457 39.4349 490.042 38.3738 488.509 38.6096L473.534 40.8497C472.119 40.9675 471.176 42.2644 471.294 43.6792Z" fill="white" stroke="#2A1E17" stroke-miterlimit="10" stroke-linecap="round" stroke-linejoin="round"/>
<path d="M475.421 45.2119L477.897 61.0103L489.924 60.0671L488.627 43.2076L475.421 45.2119Z" fill="#FF6D66"/>
<path d="M478.84 67.0231L480.491 83.6467L491.575 82.5856L490.042 65.7262L478.84 67.0231Z" fill="#91BA83"/>
<path d="M480.727 89.5416L483.203 105.222L493.344 104.161L492.047 88.1268L480.727 89.5416Z" fill="#FAD8B0"/>
<path d="M453.843 58.0628L476.011 123.26C476.364 124.322 477.661 124.911 478.723 124.557L492.636 119.606C493.697 119.252 494.287 118.073 493.933 117.012L473.063 51.2247C472.709 50.0457 471.412 49.4562 470.351 49.9278L455.14 55.5869C454.079 55.7048 453.489 56.8838 453.843 58.0628Z" fill="white" stroke="#2A1E17" stroke-miterlimit="10" stroke-linecap="round" stroke-linejoin="round"/>
<path d="M458.324 59.2418L464.101 74.0969L475.657 70.6779L470.822 54.408L458.324 59.2418Z" fill="#A0C6F4"/>
<path d="M466.224 79.7561L471.294 95.6723L481.906 92.3712L476.954 76.2191L466.224 79.7561Z" fill="#F9865F"/>
<path d="M472.709 101.331L478.487 116.304L488.038 113.121L483.557 97.5586L472.709 101.331Z" fill="#FAD8B0"/>
<path d="M286.761 168.415H174.862C171.325 168.415 168.377 165.468 168.377 161.931V146.84C168.377 143.303 171.325 140.356 174.862 140.356H286.761C290.298 140.356 293.246 143.303 293.246 146.84V161.931C293.246 165.468 290.298 168.415 286.761 168.415Z" fill="#7595EC"/>
<path d="M244.784 152.853H183.706C182.527 152.853 181.583 151.91 181.583 150.731C181.583 149.552 182.527 148.609 183.706 148.609H244.784C245.963 148.609 246.907 149.552 246.907 150.731C246.907 151.91 245.963 152.853 244.784 152.853Z" fill="white"/>
<path d="M182.291 158.394H286.054" stroke="#2A1E17" stroke-miterlimit="10" stroke-linecap="round" stroke-linejoin="round"/>
<path d="M130.999 89.4237L129.23 87.5374L123.334 92.8428L125.103 94.7291C125.811 95.5544 127.108 95.5544 127.933 94.847L130.881 92.2533C131.588 91.5459 131.706 90.249 130.999 89.4237Z" fill="#91BA83"/>
<path d="M120.74 76.9265L129.112 86.0047C129.584 86.4763 129.466 87.1837 128.994 87.6553L123.217 92.9607C122.745 93.4323 122.037 93.3144 121.566 92.8428L113.194 83.7646C112.722 83.293 112.84 82.5856 113.312 82.1141L119.09 76.8086C119.561 76.4549 120.269 76.4549 120.74 76.9265Z" stroke="#2A1E17" stroke-miterlimit="10" stroke-linecap="round" stroke-linejoin="round"/>
<path d="M104.587 125.147H94.0923V134.697H104.587V125.147Z" fill="#FF6D66"/>
<path d="M94.0921 119.016V125.147H87.8428" stroke="#2A1E17" stroke-miterlimit="10" stroke-linecap="round" stroke-linejoin="round"/>
<path d="M449.244 17.27H438.75V26.8198H449.244V17.27Z" fill="#FAD8B0"/>
<path d="M438.75 11.1393V17.27H432.501" stroke="#2A1E17" stroke-miterlimit="10" stroke-linecap="round" stroke-linejoin="round"/>
<path d="M155.643 76.337C47.1632 31.4179 -36.3188 117.955 168.141 250.473C184.295 260.965 208.939 264.62 208.939 264.62" stroke="#2A1E17" stroke-miterlimit="10" stroke-linecap="round" stroke-linejoin="round"/>
<path d="M55.8885 82.4677C57.5816 82.4677 58.9542 81.0953 58.9542 79.4024C58.9542 77.7094 57.5816 76.337 55.8885 76.337C54.1953 76.337 52.8228 77.7094 52.8228 79.4024C52.8228 81.0953 54.1953 82.4677 55.8885 82.4677Z" fill="#2A1E17"/>
<path d="M36.1973 62.425L39.6167 59.1239L47.399 63.604L51.2901 75.6296L39.3809 70.6779L36.1973 62.425Z" stroke="#2A1E17" stroke-miterlimit="10" stroke-linecap="round" stroke-linejoin="round"/>
<path d="M39.6166 59.1239L36.1971 62.425L34.3105 60.0671L37.6121 57.0017L39.6166 59.1239Z" stroke="#2A1E17" stroke-miterlimit="10" stroke-linecap="round" stroke-linejoin="round"/>
<path d="M51.29 75.6297L43.5078 67.141" stroke="#2A1E17" stroke-miterlimit="10" stroke-linecap="round" stroke-linejoin="round"/>
<path d="M70.1559 292.091L78.5277 335.477C78.7635 336.42 79.5889 337.01 80.6501 336.892L89.3756 335.005C90.3189 334.77 90.9085 333.944 90.6727 333.001L83.1263 289.261C83.0084 288.318 82.0651 287.61 81.0039 287.846L71.335 289.968C70.5097 290.322 69.9201 291.147 70.1559 292.091Z" fill="white" stroke="#2A1E17" stroke-miterlimit="10" stroke-linecap="round" stroke-linejoin="round"/>
<path d="M72.8679 292.916L75.2262 303.055L83.0084 301.876L81.3576 290.912L72.8679 292.916Z" fill="#FF6D66"/>
<path d="M76.0515 306.946L77.9381 317.674L85.1308 316.495L83.3621 305.531L76.0515 306.946Z" fill="#FAD8B0"/>
<path d="M78.4099 321.447L80.7682 331.586L87.2533 330.407L85.7205 320.032L78.4099 321.447Z" fill="#A0C6F4"/>
<path d="M311.405 400.91L347.014 391.361L348.429 395.251L312.348 404.565L311.405 400.91Z" stroke="#2A1E17" stroke-miterlimit="10" stroke-linecap="round" stroke-linejoin="round"/>
<path d="M306.453 395.959L307.514 399.142" stroke="#2A1E17" stroke-miterlimit="10" stroke-linecap="round" stroke-linejoin="round"/>
<path d="M305.509 398.081L308.457 397.02" stroke="#2A1E17" stroke-miterlimit="10" stroke-linecap="round" stroke-linejoin="round"/>
<path d="M304.802 408.338L306.688 414.351" stroke="#2A1E17" stroke-miterlimit="10" stroke-linecap="round" stroke-linejoin="round"/>
<path d="M303.151 412.111L308.457 410.46" stroke="#2A1E17" stroke-miterlimit="10" stroke-linecap="round" stroke-linejoin="round"/>
<path d="M296.666 398.199L299.142 406.334" stroke="#2A1E17" stroke-miterlimit="10" stroke-linecap="round" stroke-linejoin="round"/>
<path d="M294.072 403.268L301.618 400.91" stroke="#2A1E17" stroke-miterlimit="10" stroke-linecap="round" stroke-linejoin="round"/>
<path d="M51.7618 14.0867L29.2405 3.8296L30.0659 1.23584L52.823 11.7288L51.7618 14.0867Z" stroke="#2A1E17" stroke-width="0.6707" stroke-miterlimit="10" stroke-linecap="round" stroke-linejoin="round"/>
<path d="M52.2334 18.6848L53.0588 16.5626" stroke="#2A1E17" stroke-width="0.6707" stroke-miterlimit="10" stroke-linecap="round" stroke-linejoin="round"/>
<path d="M53.6483 18.0953L51.6438 17.27" stroke="#2A1E17" stroke-width="0.6707" stroke-miterlimit="10" stroke-linecap="round" stroke-linejoin="round"/>
<path d="M58.3647 13.0257L59.8976 9.01721" stroke="#2A1E17" stroke-width="0.6707" stroke-miterlimit="10" stroke-linecap="round" stroke-linejoin="round"/>
<path d="M60.8408 11.7289L57.3035 10.3141" stroke="#2A1E17" stroke-width="0.6707" stroke-miterlimit="10" stroke-linecap="round" stroke-linejoin="round"/>
<path d="M58.2468 21.7501L60.3693 16.4447" stroke="#2A1E17" stroke-width="0.6707" stroke-miterlimit="10" stroke-linecap="round" stroke-linejoin="round"/>
<path d="M61.6662 20.2174L56.8318 18.2131" stroke="#2A1E17" stroke-width="0.6707" stroke-miterlimit="10" stroke-linecap="round" stroke-linejoin="round"/>
<path d="M135.951 204.374C120.033 192.938 104.469 175.136 111.307 156.861C111.307 156.861 122.273 149.552 139.606 158.63C156.94 167.708 156.94 167.708 156.94 167.708L135.951 204.374Z" fill="#FAD8B0"/>
<path d="M128.758 280.537C121.566 277.118 91.0265 261.319 85.6025 234.085C80.886 210.623 98.8087 179.026 107.888 164.996C107.298 183.506 125.929 199.187 134.89 205.671C143.969 212.274 150.69 215.457 159.887 218.876L128.758 280.537Z" fill="white"/>
<path d="M106.473 170.656C108.478 183.035 117.793 195.768 133.829 207.322C142.436 213.57 148.922 216.754 157.411 220.055L127.933 278.297C118.972 273.816 92.3236 258.608 87.3713 233.849C83.2443 213.217 97.2759 185.864 106.473 170.656ZM111.307 156.861C111.307 156.861 77.5845 202.488 83.9518 234.438C90.3191 266.389 129.584 282.777 129.584 282.777L162.481 217.933C152.223 214.16 145.502 211.095 135.951 204.256C120.033 192.938 104.469 175.136 111.307 156.861Z" fill="#FAD8B0"/>
<path d="M102.464 183.388C102.464 183.388 104.469 201.781 122.745 211.566" stroke="#2A1E17" stroke-miterlimit="10" stroke-linecap="round" stroke-linejoin="round"/>
<path d="M132.532 218.168L150.926 227.954" stroke="#2A1E17" stroke-miterlimit="10" stroke-linecap="round" stroke-linejoin="round"/>
<path d="M105.058 209.562C105.058 209.562 110.954 222.649 129.938 231.137" stroke="#2A1E17" stroke-miterlimit="10" stroke-linecap="round" stroke-linejoin="round"/>
<path d="M89.9653 211.566C89.9653 211.566 90.6728 225.36 99.7521 229.958" stroke="#2A1E17" stroke-miterlimit="10" stroke-linecap="round" stroke-linejoin="round"/>
<path d="M110.954 163.817C110.954 163.817 109.303 181.502 135.951 204.374" stroke="#2A1E17" stroke-miterlimit="10" stroke-linecap="round" stroke-linejoin="round"/>
<path d="M120.74 167.001C120.74 167.001 129.23 166.293 141.729 175.489" stroke="#2A1E17" stroke-miterlimit="10" stroke-linecap="round" stroke-linejoin="round"/>
<path d="M80.768 223.474C80.1784 232.198 81.3576 264.031 127.343 284.191" stroke="#2A1E17" stroke-miterlimit="10" stroke-linecap="round" stroke-linejoin="round"/>
<path d="M374.37 205.789L354.915 244.931C354.915 244.931 368.121 249.765 357.744 264.974C357.744 264.974 382.152 275.113 398.188 248.822C414.225 222.531 374.37 205.789 374.37 205.789Z" fill="#91BA83"/>
<path d="M329.681 325.22C319.776 325.22 309.4 321.211 298.67 313.194L335.105 252.713L356.801 266.389H356.919C357.155 266.507 361.989 268.393 368.71 268.393C374.252 268.393 381.091 267.096 387.812 262.38L361.164 308.007C361.282 308.243 349.844 325.22 329.681 325.22Z" fill="white"/>
<path d="M335.813 255.306L355.858 267.921L356.094 268.039L356.329 268.157C356.565 268.275 361.636 270.397 368.828 270.397C372.955 270.397 378.025 269.69 383.096 267.45L359.867 307.299C359.041 308.36 348.193 323.569 329.681 323.569C320.602 323.569 310.933 320.032 301.029 312.841L335.813 255.306ZM398.188 248.704C389.109 263.559 377.436 266.86 368.946 266.86C362.343 266.86 357.744 264.974 357.744 264.974L334.634 250.472L296.43 313.784C309.282 323.687 320.366 327.106 329.799 327.106C351.141 327.106 362.933 309.186 362.933 309.186L398.188 248.704Z" fill="#96BD89"/>
<path d="M354.915 244.813C354.915 244.813 369.418 250.001 357.744 264.856" stroke="#2A1E17" stroke-miterlimit="10" stroke-linecap="round" stroke-linejoin="round"/>
<path d="M334.162 248.94C334.162 248.94 353.971 267.096 364.937 266.978C375.903 266.86 388.755 264.267 396.302 251.18" stroke="#2A1E17" stroke-miterlimit="10" stroke-linecap="round" stroke-linejoin="round"/>
<path d="M336.638 272.519C336.638 272.519 350.198 284.545 365.409 280.772" stroke="#2A1E17" stroke-miterlimit="10" stroke-linecap="round" stroke-linejoin="round"/>
<path d="M350.906 290.558C350.906 290.558 358.098 295.863 368.003 290.794" stroke="#2A1E17" stroke-miterlimit="10" stroke-linecap="round" stroke-linejoin="round"/>
<path d="M318.126 297.985C318.126 297.985 334.634 314.373 360.457 303.527" stroke="#2A1E17" stroke-miterlimit="10" stroke-linecap="round" stroke-linejoin="round"/>
<path d="M327.087 281.951C327.087 281.951 333.808 286.785 338.053 288.318" stroke="#2A1E17" stroke-miterlimit="10" stroke-linecap="round" stroke-linejoin="round"/>
<path d="M377.672 217.107C377.672 217.107 392.647 222.059 394.533 241.866" stroke="#2A1E17" stroke-miterlimit="10" stroke-linecap="round" stroke-linejoin="round"/>
<path d="M385.218 241.63C385.218 241.63 392.175 252.359 380.384 263.088" stroke="#2A1E17" stroke-miterlimit="10" stroke-linecap="round" stroke-linejoin="round"/>
<path d="M297.845 316.731C297.845 316.731 335.577 349.035 362.933 311.308" stroke="#2A1E17" stroke-miterlimit="10" stroke-linecap="round" stroke-linejoin="round"/>
<path d="M25.3494 193.528H34.0749" stroke="#FF6D66" stroke-miterlimit="10" stroke-linecap="round" stroke-linejoin="round"/>
<path d="M515.511 87.7731H524.355" stroke="#FF6D66" stroke-miterlimit="10" stroke-linecap="round" stroke-linejoin="round"/>
<path d="M279.568 27.4093H288.294" stroke="#FAD8B0" stroke-miterlimit="10"/>
<path d="M532.373 133.4L540.98 134.932" stroke="#FAD8B0" stroke-miterlimit="10"/>
<path d="M186.654 352.926H195.497" stroke="#A0C6F4" stroke-miterlimit="10" stroke-linecap="round" stroke-linejoin="round"/>
<path d="M551.357 246.228C552.985 246.228 554.304 244.909 554.304 243.281C554.304 241.653 552.985 240.333 551.357 240.333C549.728 240.333 548.409 241.653 548.409 243.281C548.409 244.909 549.728 246.228 551.357 246.228Z" fill="#91BA83"/>
<path d="M3.7713 106.283C5.39933 106.283 6.71911 104.963 6.71911 103.336C6.71911 101.708 5.39933 100.388 3.7713 100.388C2.14327 100.388 0.823486 101.708 0.823486 103.336C0.823486 104.963 2.14327 106.283 3.7713 106.283Z" fill="#91BA83"/>
<path d="M585.198 434.04C586.891 434.04 588.263 432.667 588.263 430.975C588.263 429.282 586.891 427.909 585.198 427.909C583.504 427.909 582.132 429.282 582.132 430.975C582.132 432.667 583.504 434.04 585.198 434.04Z" fill="#2A1E17"/>
<path d="M761.359 329.7C763.052 329.7 764.424 328.328 764.424 326.635C764.424 324.942 763.052 323.569 761.359 323.569C759.666 323.569 758.293 324.942 758.293 326.635C758.293 328.328 759.666 329.7 761.359 329.7Z" fill="#2A1E17"/>
<path d="M762.066 325.456C762.066 325.456 786.356 253.184 677.759 295.863C564.917 340.193 519.874 433.215 538.268 440.524C556.781 447.834 584.254 431.328 584.254 431.328" stroke="#2A1E17" stroke-miterlimit="10" stroke-linecap="round" stroke-linejoin="round"/>
</g>
<defs>
<clipPath id="clip0_202_1537">
<rect width="764.19" height="442" fill="white" transform="translate(0.823486 0.882202)"/>
</clipPath>
</defs>
</svg>
